<svg xmlns="http://www.w3.org/2000/svg" width="512" height="512" viewBox="0 0 512 512">
  <defs>
    <style>
      .cls-1 {
        fill: #fff;
        fill-rule: evenodd;
      }
    </style>
  </defs>
  <path class="cls-1" d="M21,0.595H133.679a21,21,0,0,1,21,21V491a21,21,0,0,1-21,21H21A21,21,0,0,1,0,491V21.595A21,21,0,0,1,21,.595Zm178.66,0H312.34a21,21,0,0,1,21,21V288.816a21,21,0,0,1-21,21H199.66a21,21,0,0,1-21-21V21.595A21,21,0,0,1,199.66.595ZM378.321,0H491a21,21,0,0,1,21,21V389.314a21,21,0,0,1-21,21H378.321a21,21,0,0,1-21-21V21A21,21,0,0,1,378.321,0Z"/>
</svg>
