<svg xmlns="http://www.w3.org/2000/svg" width="512" height="512" viewBox="0 0 512 512">
  <defs>
    <style>
      .cls-1 {
        fill: #fff;
        fill-rule: evenodd;
      }
    </style>
  </defs>
  <path id="Forma_336_1" data-name="Forma 336 1" class="cls-1" d="M371.916,492.789c-37.878,18.4-74.082,19.217-74.082,19.217H8.365V431.02h282.61s129.559-14.05,130.33-145.5c0.7-120.419-123.471-141.383-123.471-141.383v59.024l-122.1-101.576L297.834,0.007V61.776s32.993,0.2,75.454,20.59c57.976,27.843,130.33,89.876,130.33,208.643C503.618,399.459,431.739,463.732,371.916,492.789ZM133.207,278.655c-2.318,69.021,42.529,111.185,42.529,111.185H75.588S40.8,324.161,55.009,248.457c16.049-85.524,72.711-130.4,72.711-130.4L192.2,171.588S135.527,209.6,133.207,278.655Z"/>
</svg>
